<svg version="1.2" xmlns="http://www.w3.org/2000/svg" viewBox="0 0 576 512" width="576" height="512">
	<title>ic_start-svg</title>
	<style>
		.s0 { fill: #005c9e } 
	</style>
	<path id="Layer" class="s0" d="m316.9 18c-5.3-11-16.5-18-28.8-18-12.3 0-23.4 7-28.8 18l-64.3 132.3-143.6 21.2c-12 1.8-22 10.2-25.7 21.7-3.7 11.5-0.7 24.2 7.9 32.7l104.2 103.1-24.6 145.7c-2 12 3 24.2 12.9 31.3 9.9 7.1 23 8 33.8 2.3l128.3-68.5 128.3 68.5c10.8 5.7 23.9 4.9 33.8-2.3 9.9-7.2 14.9-19.3 12.9-31.3l-24.7-145.7 104.2-103.1c8.6-8.5 11.7-21.2 7.9-32.7-3.8-11.5-13.7-19.9-25.7-21.7l-143.7-21.2z"/>
</svg>